<svg xmlns="http://www.w3.org/2000/svg" width="71.475" height="83.149" viewBox="0 0 71.475 83.149">
  <g id="Group_38121" data-name="Group 38121" transform="translate(-243.434 -313.394)">
    <path id="Path_59382" data-name="Path 59382" d="M294.79,340.462c0-3.085.053-6.172-.015-9.256s-1.461-4.445-4.51-4.52c-1.6-.04-3.2-.005-4.8.013a7.375,7.375,0,0,0-1,.171c-.126.771-.255,1.565-.416,2.55H257.2c-.174-.806-.362-1.677-.543-2.514-10.1-.818-10.393-.089-10.31,8.784.142,15.056.036,30.114.046,45.172,0,4.554,1.141,5.7,5.632,5.712,7.435.012,14.87.061,22.3-.034,1.981-.025,2.7.79,2.745,2.884H259.3c-2.635,0-5.27.015-7.905,0-5.346-.037-7.916-2.6-7.939-8.009-.033-7.811-.01-15.622-.009-23.433,0-8.658-.014-17.316.01-25.974.016-5.767,2.475-8.169,8.293-8.192a11.558,11.558,0,0,0,3.088-.062,8.187,8.187,0,0,0,2.727-1.645c.635-.522.94-1.655,1.61-1.888,3.068-1.064,4.971-3.552,7.371-5.46,3.158-2.511,7.76-1.361,10.249,1.888a15.285,15.285,0,0,0,3.066,2.347c1.169.892,2.752,1.576,3.382,2.761a3.316,3.316,0,0,0,3.721,2.086,27.683,27.683,0,0,1,4.231,0,6.5,6.5,0,0,1,6.388,5.991,38.334,38.334,0,0,1,.015,7.6c-.137,1.2-1.274,2.279-1.959,3.412Zm-19.3-19.018c-.552-2.565-1.522-4.9-4.685-5.032-3.468-.142-4.541,2.36-5.139,5.068-5.412.417-6.3,1.283-5.417,5.15h20.745C281.6,322.576,280.969,321.988,275.487,321.443Z" fill="#fbaf40" fill-rule="evenodd"/>
    <path id="Path_59383" data-name="Path 59383" d="M331.814,426.667a13.339,13.339,0,1,1-26.676-.184,13.5,13.5,0,0,1,13.6-13.3A13.35,13.35,0,0,1,331.814,426.667Zm-14.377,9.313,10.736-12.714-3.157-2.676c-2.765,3.238-5.421,6.348-8.086,9.468l-5.178-4.271-2.63,3.19Z" transform="translate(-26.833 -43.392)" fill="#fbaf40" fill-rule="evenodd"/>
    <path id="Path_59384" data-name="Path 59384" d="M304.534,380.414c.665-4.245,1.667-7.285,4.422-9.894,8-7.57,15.728-15.421,23.612-23.211l4.551,4.619c-8.372,8.478-16.739,17.157-25.4,25.531C310.123,379,307.333,379.314,304.534,380.414Z" transform="translate(-26.57 -14.748)" fill="#fbaf40" fill-rule="evenodd"/>
    <path id="Path_59385" data-name="Path 59385" d="M306.806,361.288c.584,1.841.13,2.6-1.748,2.578q-10.121-.1-20.244,0c-1.969.02-2.191-.886-1.689-2.58Z" transform="translate(-17.161 -20.828)" fill="#fbaf40" fill-rule="evenodd"/>
    <path id="Path_59386" data-name="Path 59386" d="M257.158,383.775l2.343-1.584,2.705,3.547,5.272-5.858,1.932,1.721c-1.924,2.194-3.784,4.287-5.609,6.41-1.1,1.277-2.034,1-3.009-.154C259.76,386.638,258.67,385.468,257.158,383.775Z" transform="translate(-5.968 -28.913)" fill="#fbaf40" fill-rule="evenodd"/>
    <path id="Path_59387" data-name="Path 59387" d="M336.882,398.99c-1.989.277-2.7-.6-2.635-2.517a75.469,75.469,0,0,0-.016-7.569c-.144-2.249.359-4.055,2.651-5.343Z" transform="translate(-39.475 -30.514)" fill="#fbaf40" fill-rule="evenodd"/>
    <path id="Path_59388" data-name="Path 59388" d="M267.723,405.828l1.846,1.841c-2.048,2.328-3.86,4.336-5.61,6.4-1.149,1.353-2.141,1.207-3.216-.075-1.017-1.215-2.109-2.368-3.538-3.962l2-1.939,3.1,3.774Z" transform="translate(-5.989 -40.197)" fill="#fbaf40" fill-rule="evenodd"/>
    <path id="Path_59389" data-name="Path 59389" d="M267.626,353.549l2.1,1.721c-2.322,2.442-4.518,4.817-6.837,7.067-.186.18-1.357-.371-1.829-.829-1.2-1.162-2.254-2.466-3.48-3.838l2.047-2.167,2.617,4.014Z" transform="translate(-6.152 -17.462)" fill="#fbaf40" fill-rule="evenodd"/>
    <path id="Path_59390" data-name="Path 59390" d="M297.572,389.178a19.735,19.735,0,0,1-4.365,1.407,81.28,81.28,0,0,1-8.183.053c-1.885-.032-1.884-.081-1.782-2.483h14Z" transform="translate(-17.296 -32.511)" fill="#fbaf40" fill-rule="evenodd"/>
    <path id="Path_59391" data-name="Path 59391" d="M361.739,347.357l-5.441-5.394c1.424-.9,3.081-2.63,3.855-2.3a7.66,7.66,0,0,1,3.8,3.869C364.277,344.365,362.578,346,361.739,347.357Z" transform="translate(-49.081 -11.406)" fill="#fbaf40" fill-rule="evenodd"/>
    <path id="Path_59392" data-name="Path 59392" d="M298.282,415.655c-1.042.546-2.064,1.512-3.13,1.564-3.922.189-7.859.075-11.864.075-.634-1.592-.662-2.587,1.416-2.565,4.4.047,8.8.014,13.2.014Q298.092,415.2,298.282,415.655Z" transform="translate(-17.166 -44.068)" fill="#fbaf40" fill-rule="evenodd"/>
    <path id="Path_59393" data-name="Path 59393" d="M288.671,327.163c-.773-1.168-2.194-2.377-2.123-3.491a2.794,2.794,0,0,1,5.572-.014c.075,1.114-1.344,2.331-2.114,3.5Z" transform="translate(-18.748 -3.342)" fill="#fbaf40" fill-rule="evenodd"/>
  </g>
</svg>
