<svg xmlns="http://www.w3.org/2000/svg" width="88.126" height="85.454" viewBox="0 0 88.126 85.454">
  <g id="Group_38123" data-name="Group 38123" transform="translate(-243 -334.956)">
    <path id="Path_59403" data-name="Path 59403" d="M356.287,383.18c-1.164.649-2.264,1.688-3.5,1.884-8.375,1.334-16.773,2.524-25.178,3.65-.948.127-1.99-.443-2.987-.691.913-.618,1.763-1.634,2.75-1.791,8.588-1.376,17.2-2.6,26.1-3.909-.1-1.1-.183-2.04-.288-3.206l-25.427,3.743a6.842,6.842,0,0,1-2.033.249,7.958,7.958,0,0,1-1.953-.907c.583-.568,1.1-1.515,1.762-1.639,3.374-.627,6.786-1.04,10.932-1.636-2-2-3.634-3.6-5.232-5.237-1.712-1.749-1.986-4.045-.286-5.506,2.238-1.922,1.582-3.457.4-5.328a4.911,4.911,0,0,1-.826-1.494,20.809,20.809,0,0,1-.193-2.766c.842.543,2,.9,2.466,1.666,1.164,1.912,2.014,4.015,3.105,6.28h8.243c1.99-3.712,3.9-7.3,5.829-10.87,2.953-5.471,2.308-10.838-1.793-14.81a11.631,11.631,0,0,0-13.982-1.644c-4.684,2.766-6.6,7.914-5.259,13.723a8.292,8.292,0,0,1-.418,2.881c-.684-.78-1.681-1.45-2-2.359a13.963,13.963,0,0,1,5.316-15.815,14.127,14.127,0,0,1,16.708.085c4.978,3.6,7.292,10.156,5.121,15.874a81.436,81.436,0,0,1-5.027,9.749c-.894,1.641-1.3,2.885.408,4.5,2.165,2.047,1.7,4.673-.832,6.338-1.031.677-2.333.938-3.052,1.86,4.279,2.243,9.13-2.388,11.129,3.685Zm-16.124-13.8c-1.948,0-3.9-.1-5.84.058-.578.045-1.1.783-1.653,1.2.532.465,1.052,1.317,1.6,1.335q5.838.185,11.683.025c.561-.015,1.1-.837,1.648-1.286-.532-.448-1.034-1.232-1.6-1.279C344.067,369.275,342.11,369.373,340.163,369.38Zm3.633,5.545h-7.206C339.2,377.572,340.839,377.594,343.8,374.925Z" transform="translate(-25.162)" fill="#24aae0" fill-rule="evenodd"/>
    <path id="Path_59404" data-name="Path 59404" d="M243,394.216l11.353-3.224a26.831,26.831,0,0,0-3.1-3.4c-2.544-2-2.728-4.142-.8-6.737a4.366,4.366,0,0,0,.537-3.679c-1.4-3.126-3.437-5.964-4.828-9.091a14,14,0,0,1,3.763-16.27,14.28,14.28,0,0,1,23.491,13.071c-.056.34,0,.772-.189,1-.572.7-1.24,1.314-1.871,1.963a9.97,9.97,0,0,1-.693-2.383c-.063-1.692.388-3.453.074-5.078a11.056,11.056,0,0,0-9.047-9.228,10.942,10.942,0,0,0-11.356,4.061,11.062,11.062,0,0,0-1.455,12.568c1.928,4,4.189,7.831,6.472,12.048H263.5c1.344-2.669,2.519-5.228,3.924-7.654.406-.7,1.473-1.021,2.237-1.516a9.585,9.585,0,0,1,.049,2.627,9.426,9.426,0,0,1-1.309,2.4c-1.241,2.019-2.33,3.707.209,5.933,1.838,1.611,1.29,4.011-.758,5.654-.673.541-1.43.978-2.149,1.462.072.3.143.594.213.89,2.023-.262,4.042-.637,6.073-.733a8.545,8.545,0,0,1,2.653.775c-.783.6-1.5,1.6-2.358,1.737-7.8,1.262-15.636,2.343-23.448,3.561-1.261.2-3.535-.307-2.846,2.131.18.636,2.17,1.214,3.23,1.074,7.837-1.035,15.644-2.3,23.477-3.365.876-.118,1.86.565,2.793.876-.746.525-1.437,1.393-2.245,1.52-8.6,1.363-17.226,2.553-25.825,3.92-2.467.392-3.53-.942-4.421-2.791Zm16.219-8.939v.03c1.946,0,3.9.094,5.836-.054.631-.048,1.215-.724,1.819-1.113-.5-.5-.99-1.428-1.506-1.443q-6.005-.178-12.019.008c-.5.015-.962.954-1.442,1.465.491.368.963,1.022,1.476,1.055C255.32,385.353,257.272,385.278,259.219,385.278Zm4.406,2.961h-8.386C258.172,390.76,260.414,390.668,263.624,388.239Z" transform="translate(0 -4.151)" fill="#24aae0" fill-rule="evenodd"/>
    <path id="Path_59405" data-name="Path 59405" d="M285.455,430.262h25.672a40.013,40.013,0,0,1-2.231-4.116,5.684,5.684,0,0,1,.072-2.2c.728.333,1.669.481,2.147,1.031,1.913,2.2,4.038,4.335,5.385,6.866a10.623,10.623,0,0,1,.8,6.159c-.1.68-2.592,1.427-4,1.445q-14.97.186-29.943,0c-1.4-.018-3.87-.8-3.966-1.493-.279-2-.226-4.542.812-6.15,3.925-6.077,8.293-11.867,12.338-17.545-4.835-6.788-4.821-11.843-.417-15.593a9.588,9.588,0,0,1,12.6.119c4.264,3.795,4.247,8.914-.212,14.906.978,1.66,2.12,3.365,2.983,5.2.282.6-.16,1.536-.271,2.318-.642-.326-1.516-.49-1.882-1.011-1.113-1.589-2.032-3.316-2.993-4.934H294.39Zm29.228,6.423c.844-2.657,0-3.728-2.66-3.712q-13.741.089-27.484.005c-2.806-.014-3.262,1.31-2.54,3.706Zm-9.423-30.709a6.917,6.917,0,1,0-13.831.074,6.917,6.917,0,0,0,13.831-.074Z" transform="translate(-11.291 -19.13)" fill="#24aae0" fill-rule="evenodd"/>
    <path id="Path_59406" data-name="Path 59406" d="M344.076,362.551c-2.719.552-3.5-.969-3.344-3.691s.067-5.474.047-8.213c-.015-2.085-.372-4.116,2.963-3.992,4.127.153,6.121,1.227,6.424,4.04a31.82,31.82,0,0,0,.987,5.378C352.264,359.939,349.546,362.593,344.076,362.551Zm-1.3-3.736,1.172,1.046c1.857-.072,4.31.777,4.536-2.277.049-.668-2.383-2.339-2.989-2.061C344.326,356.058,343.649,357.658,342.772,358.815Zm.284-6.836,1.3,1.179,3.128-2.064-2.695-1.8Q343.922,350.635,343.055,351.979Z" transform="translate(-30.439 -3.643)" fill="#24aae0" fill-rule="evenodd"/>
    <path id="Path_59407" data-name="Path 59407" d="M270.436,371.846c-.313.426-.638,1.275-1.036,1.312a2.262,2.262,0,0,1-1.583-.919c-2.172-2.795-5.772-2.839-7.794-.114-.38.512-1.186.706-1.795,1.046-.178-.675-.675-1.464-.481-2.008,1.45-4.085,2.947-8.161,4.621-12.159.712-1.7,2.265-1.907,3.027-.157C267.214,363.025,268.715,367.342,270.436,371.846Z" transform="translate(-4.58 -7.062)" fill="#24aae0" fill-rule="evenodd"/>
    <path id="Path_59408" data-name="Path 59408" d="M343.7,362.817c.878-1.157,1.555-2.757,2.719-3.292.607-.278,3.038,1.393,2.989,2.061-.226,3.054-2.679,2.205-4.536,2.277Z" transform="translate(-31.371 -7.644)" fill="#24aae0" fill-rule="evenodd"/>
    <path id="Path_59409" data-name="Path 59409" d="M344.115,353.174q.867-1.345,1.733-2.689l2.695,1.8-3.128,2.064Z" transform="translate(-31.499 -4.837)" fill="#24aae0" fill-rule="evenodd"/>
    <path id="Path_59410" data-name="Path 59410" d="M309.313,407.741c.092,2.967-1.718,4.934-4.176,4.844-2.5-.092-4.1-1.4-4.238-3.975-.149-2.731,1.336-4.384,4-4.523A3.893,3.893,0,0,1,309.313,407.741Z" transform="translate(-18.033 -21.533)" fill="#24aae0" fill-rule="evenodd"/>
  </g>
</svg>
