<svg xmlns="http://www.w3.org/2000/svg" width="31" height="31" viewBox="0 0 31 31">
  <g id="Group_38171" data-name="Group 38171" transform="translate(-378 -9893.625)">
    <circle id="Ellipse_288" data-name="Ellipse 288" cx="15.5" cy="15.5" r="15.5" transform="translate(378 9893.625)" fill="#fbaf40"/>
    <g id="Group_38160" data-name="Group 38160" transform="translate(386.651 9900.834)">
      <path id="Path_38522" data-name="Path 38522" d="M7.113-293.088c-4.729,0-7.113,3.281-7.113,6.017a3.689,3.689,0,0,0,2.037,3.681.472.472,0,0,0,.17.035.334.334,0,0,0,.329-.277c.047-.168.155-.594.2-.774a.457.457,0,0,0-.143-.536,2.722,2.722,0,0,1-.658-1.888,4.643,4.643,0,0,1,4.9-4.614c2.673,0,4.141,1.58,4.141,3.691,0,2.777-1.27,5.122-3.155,5.122a1.505,1.505,0,0,1-1.571-1.856,20.133,20.133,0,0,0,.88-3.417,1.307,1.307,0,0,0-1.343-1.446c-1.066,0-1.921,1.065-1.921,2.493a3.612,3.612,0,0,0,.318,1.524s-1.088,4.466-1.279,5.249a10.447,10.447,0,0,0-.03,3.66.124.124,0,0,0,.128.106.135.135,0,0,0,.108-.051,10.162,10.162,0,0,0,1.8-3.152c.124-.428.7-2.647.7-2.647a2.882,2.882,0,0,0,2.433,1.2c3.2,0,5.37-2.821,5.37-6.6C13.416-290.426,10.915-293.088,7.113-293.088Z" transform="translate(0 293.088)" fill="#202020"/>
    </g>
  </g>
</svg>
