<svg xmlns="http://www.w3.org/2000/svg" width="57.237" height="72.973" viewBox="0 0 57.237 72.973">
  <g id="Group_38154" data-name="Group 38154" transform="translate(-93.286 -124.495)">
    <path id="Path_59468" data-name="Path 59468" d="M123.09,474.526c-7.456-.05-13.592-.62-19.568-2.375a22.089,22.089,0,0,1-8.077-3.884,5.4,5.4,0,0,1-2.128-4.98q1.234-13.162,13.48-18.037a22.429,22.429,0,0,1,3.22-.868,1.033,1.033,0,0,1,.719.185c5.645,3.87,11.743,4.244,18.078,2.213A28.834,28.834,0,0,0,133,444.6a1.457,1.457,0,0,1,.845-.205,20.4,20.4,0,0,1,16.669,19.36,4.994,4.994,0,0,1-1.481,3.869A16.257,16.257,0,0,1,143,471.232a50.518,50.518,0,0,1-13.619,2.923C126.875,474.381,124.354,474.455,123.09,474.526Z" transform="translate(0 -277.058)" fill="#24aae0" fill-rule="evenodd"/>
    <path id="Path_59469" data-name="Path 59469" d="M209.764,230.894a12.548,12.548,0,0,1-9.5-2.689A18.153,18.153,0,0,1,192.9,212.32a15.311,15.311,0,0,1,30.464-.561,17.347,17.347,0,0,1-2.729,11.349,1.157,1.157,0,0,1-.563.409,9.2,9.2,0,0,1-1.034.266,2.729,2.729,0,0,1-2.4-.244,3.565,3.565,0,0,0-1.72-.419c-1.044-.064-2.1-.031-3.143-.016a4.124,4.124,0,0,0-2.382,7.492C209.474,230.657,209.554,230.726,209.764,230.894Z" transform="translate(-86.253 -63.897)" fill="#24aae0" fill-rule="evenodd"/>
    <path id="Path_59470" data-name="Path 59470" d="M168.68,153.828c0,1.249.01,2.5,0,3.747a3.917,3.917,0,0,1-5.593,3.558,1.013,1.013,0,0,0-.824,0,20.592,20.592,0,0,1-9.337,3.18,2.08,2.08,0,0,0-1.2.562,3.263,3.263,0,0,1-1.644.736,22.128,22.128,0,0,1-3.007.027,2.289,2.289,0,1,1-.03-4.577,21.988,21.988,0,0,1,3.007.026,6.621,6.621,0,0,1,1.679.674c.228.1.466.3.682.278a18.664,18.664,0,0,0,8.256-2.667.583.583,0,0,0,.306-.8,4.066,4.066,0,0,1-.114-1.192c-.009-2.32.022-4.64-.013-6.959a4.042,4.042,0,0,1,1.8-3.663,1,1,0,0,0,.271-.783,18.9,18.9,0,0,0-4.395-10.781A19.223,19.223,0,0,0,136.2,129.45c-7.341,2.978-11.4,8.634-12.347,16.512a.844.844,0,0,0,.43.928A3.578,3.578,0,0,1,125.939,150c.016,2.543.027,5.086,0,7.628a3.915,3.915,0,0,1-7.829-.071c-.012-2.476-.007-4.952,0-7.427a3.9,3.9,0,0,1,1.759-3.347,1.2,1.2,0,0,0,.45-.786,23.133,23.133,0,0,1,43.648-8.939,22.664,22.664,0,0,1,2.466,8.615,1.5,1.5,0,0,0,.7,1.309,3.462,3.462,0,0,1,1.539,2.965C168.7,151.24,168.679,152.534,168.68,153.828Z" transform="translate(-21.494)" fill="#24aae0" fill-rule="evenodd"/>
  </g>
</svg>
