<svg xmlns="http://www.w3.org/2000/svg" width="77.558" height="50.001" viewBox="0 0 77.558 50.001">
  <g id="Group_38119" data-name="Group 38119" transform="translate(-199.907 -367.476)">
    <path id="Path_59370" data-name="Path 59370" d="M341.806,452.288h-20.89V438.1a27.3,27.3,0,0,1-12.593,6.007,24.363,24.363,0,0,1-3.9.528,3.779,3.779,0,0,1-.612-7.519A21.125,21.125,0,0,0,320,427.69c3.913-5.608,9.457-6.453,15.632-5.387,3.081.532,6.051,3.439,6.118,6.5C341.921,436.59,341.806,444.386,341.806,452.288Z" transform="translate(-64.379 -34.811)" fill="#39b549" fill-rule="evenodd"/>
    <path id="Path_59371" data-name="Path 59371" d="M199.945,452.223c0-7.758-.113-15.381.047-23,.082-3.919,3.61-6.812,7.869-7.248,5.819-.6,10.6.928,14.133,5.878,3.236,4.537,7.458,7.761,13.394,8.689-1.734,2.511-2.179,4.952-.639,7.659a27.893,27.893,0,0,1-13.83-6.193v14.213Z" transform="translate(0 -34.779)" fill="#39b549" fill-rule="evenodd"/>
    <path id="Path_59372" data-name="Path 59372" d="M213.127,385.1a8.808,8.808,0,1,1,8.914-8.651A8.84,8.84,0,0,1,213.127,385.1Z" transform="translate(-2.806 -0.005)" fill="#39b549" fill-rule="evenodd"/>
    <path id="Path_59373" data-name="Path 59373" d="M370.673,385.1a8.81,8.81,0,1,1-.154-17.619,8.81,8.81,0,1,1,.154,17.619Z" transform="translate(-103.528 0)" fill="#39b549" fill-rule="evenodd"/>
  </g>
</svg>
