<svg xmlns="http://www.w3.org/2000/svg" width="49.824" height="66.333" viewBox="0 0 49.824 66.333">
  <g id="Group_38156" data-name="Group 38156" transform="translate(-919.578 -4012)">
    <g id="Group_38155" data-name="Group 38155" transform="translate(919.578 4012)">
      <path id="Path_59471" data-name="Path 59471" d="M271.824,350.334H222q.017-16.841.032-33.682,0-16.326-.032-32.652h38.326c3.518,3.558,7.062,7.091,10.527,10.7a3.523,3.523,0,0,1,.9,2.141c.1,3.091.039,6.188.042,9.283Q271.806,328.229,271.824,350.334ZM226.217,346.1h41.377V300.5H255.2V288.236H226.217Zm33.146-49.758h6.6l-6.6-6.529Z" transform="translate(-222 -284)" fill="#fbaf40" fill-rule="evenodd"/>
      <path id="Path_59472" data-name="Path 59472" d="M256.633,364.629a20.748,20.748,0,0,1,3.349,1.317,1.73,1.73,0,0,0,1.976.112q4.043-2.1,8.157-4.067a1.623,1.623,0,0,0,1.057-1.678,5.919,5.919,0,0,1,5.133-5.734,6.108,6.108,0,0,1,6.784,3.964,5.971,5.971,0,0,1-2.518,7.3,2.18,2.18,0,0,0-1.262,2.313c.074,2.06.055,4.126,0,6.188a1.668,1.668,0,0,0,1.008,1.716,6.046,6.046,0,0,1,2.925,7.043,6.29,6.29,0,0,1-5.9,4.5,6.215,6.215,0,0,1-5.968-4.4c-.045-.139-.167-.289-.141-.411.473-2.23-1.183-2.763-2.691-3.48-2.167-1.03-4.324-2.088-6.432-3.232a1.857,1.857,0,0,0-2.23.116,6.143,6.143,0,0,1-9.449-5.887,5.909,5.909,0,0,1,4.365-5.2,11.428,11.428,0,0,1,1.732-.285Zm20.585-8.163a4.189,4.189,0,1,0,4.256,4.2A4.308,4.308,0,0,0,277.218,356.466ZM260.73,370.984a4.181,4.181,0,1,0-8.361.093,4.181,4.181,0,1,0,8.361-.093Zm16.58,14.593a4.175,4.175,0,1,0-4.214-4.228A4.3,4.3,0,0,0,277.309,385.577Z" transform="translate(-242.01 -333.718)" fill="#fbaf40" fill-rule="evenodd"/>
    </g>
  </g>
</svg>
