<svg xmlns="http://www.w3.org/2000/svg" width="89.333" height="89.333" viewBox="0 0 89.333 89.333">
  <g id="Group_38120" data-name="Group 38120" transform="translate(-232 -322)">
    <path id="Path_59374" data-name="Path 59374" d="M232,364.652a31.389,31.389,0,0,0,18.633-1.9c2.043-.905,2.961-2.012,2.894-4.436-.2-7.24-.088-14.488-.064-21.733.013-4.127,2.036-6.174,6.193-6.28,2.182-.056,4.368.048,6.549-.027,1.9-.065,2.559.714,1.894,2.906-2.623,0-5.379.066-8.129-.019-2.472-.077-3.734.972-3.732,3.477,0,8.039-.067,16.079.092,24.115a3.768,3.768,0,0,0,2.04,2.619c5.166,2.216,10.566,2.45,15.888,1.9,1.171.442,2.337,1.246,3.516,1.269,6.746.123,13.5.029,20.246.092,1.092.01,2.993-.736,2.718,1.459-.068.552-1.693,1.283-2.612,1.3-7.536.1-15.075.059-22.857.059V376.7h6.458c5.657,0,11.316-.058,16.97.072.738.017,1.456,1,2.183,1.535-.73.433-1.456,1.233-2.191,1.242-7.731.091-15.463.057-23.43.057v7.271h5.893c5.856,0,11.712-.043,17.566.06.724.013,1.435.808,2.152,1.239-.748.515-1.49,1.466-2.245,1.478-7.724.11-15.448.067-22.642.067l-5.244,12.974a8.6,8.6,0,0,0,1.237.133q15.036.017,30.071,0c3.348-.008,3.976-.644,3.978-4.056q.024-30.667,0-61.335c0-3.672-.622-4.233-4.414-4.247-2.466-.008-4.931,0-7.422,0-.49-1.823-.419-2.95,1.693-2.9,2.479.059,4.967-.089,7.441.045a5.4,5.4,0,0,1,5.507,5.772q.061,31.858,0,63.716c-.007,3.787-2.112,5.813-5.978,5.829-11.016.045-22.033-.044-33.048.091a9.176,9.176,0,0,0-4.486,1.607c-3.641,2.323-7.137,4.873-10.69,7.334h-1.787a17.283,17.283,0,0,0-1.657-1.176c-8.908-4.908-16.464-11.019-19.187-21.456Zm2.549,3c0,5.985.291,11.719-.067,17.412-.565,8.983,3.051,15.835,10.107,20.907,10.306,7.409,7.692,7.5,18.231-.112,4.627-3.343,8.871-7.7,9.347-13.609.647-8.037.161-16.166.161-24.546a32.918,32.918,0,0,1-18.157-3.24,1.4,1.4,0,0,0-1.1,0A33.176,33.176,0,0,1,234.549,367.652Z" transform="translate(0 -3.345)" fill="#ee4036" fill-rule="evenodd"/>
    <path id="Path_59375" data-name="Path 59375" d="M232,434c2.723,10.437,10.279,16.548,19.187,21.456a17.283,17.283,0,0,1,1.657,1.176H232Z" transform="translate(0 -45.298)" fill="#ee4036" fill-rule="evenodd"/>
    <path id="Path_59376" data-name="Path 59376" d="M375.3,377.458c-1.7.1-1.865-.97-1.827-2.29.048-1.663.011-3.329.011-4.993l-1.207.032v15.628h-6.8c0-5.914-.146-11.807.1-17.683.065-1.582,1.171-3.208,2.11-4.605.235-.349,2.436.052,2.447.209.255,3.267,2.974,4.055,5.171,5.366Z" transform="translate(-53.965 -16.746)" fill="#ee4036" fill-rule="evenodd"/>
    <path id="Path_59377" data-name="Path 59377" d="M309.287,322c.936,2.378,2.551,3.448,5.2,3.034,1.5-.235,3.056-.113,3.162,2.077.1,2.162-.277,4.341-2.747,4.487a117.173,117.173,0,0,1-14.215-.007c-2.428-.153-2.856-2.33-2.744-4.505.114-2.205,1.677-2.286,3.169-2.052a4.279,4.279,0,0,0,5.2-3.033Zm-3.622,2.987c1,.724,1.62,1.522,2.136,1.458a2.04,2.04,0,0,0,1.363-1.491,2.018,2.018,0,0,0-1.384-1.451C307.261,323.45,306.654,324.248,305.665,324.987Z" transform="translate(-26.665)" fill="#ee4036" fill-rule="evenodd"/>
    <path id="Path_59378" data-name="Path 59378" d="M369,430.909c-2.251-2.947-3.742-5.206-3.647-8.36.172-5.631.049-11.27.049-17.076h6.671c0,6.6.2,13.034-.128,19.442C371.852,426.772,370.214,428.55,369,430.909Z" transform="translate(-53.933 -33.76)" fill="#ee4036" fill-rule="evenodd"/>
    <path id="Path_59379" data-name="Path 59379" d="M308.157,360.178c-4.847,0-9.694.053-14.538-.057-.736-.017-1.454-.79-2.181-1.214.735-.51,1.465-1.455,2.2-1.463q14.537-.149,29.076-.011c.735.006,1.464.783,2.2,1.2-.74.514-1.468,1.453-2.221,1.474C317.852,360.243,313,360.178,308.157,360.178Z" transform="translate(-24.04 -14.305)" fill="#ee4036" fill-rule="evenodd"/>
    <path id="Path_59380" data-name="Path 59380" d="M308.173,377.149c-4.848,0-9.7.066-14.543-.07-.744-.021-1.461-.975-2.191-1.5.721-.425,1.438-1.213,2.162-1.219q14.545-.122,29.091.013c.741.008,1.473.965,2.209,1.481-.727.431-1.446,1.218-2.182,1.235C317.871,377.2,313.022,377.149,308.173,377.149Z" transform="translate(-24.039 -21.153)" fill="#ee4036" fill-rule="evenodd"/>
    <path id="Path_59381" data-name="Path 59381" d="M241.691,397.1c5.171-1.332,9.922-2.581,14.69-3.761a4.861,4.861,0,0,1,2.254-.017c4.754,1.186,9.491,2.446,14.706,3.805a8.56,8.56,0,0,1,.161,1.488c.026,3.766-.342,7.572.082,11.291,1.117,9.8-3.765,16.25-11.354,21.236-5.492,3.609-3.906,3.737-9.437-.037a36.45,36.45,0,0,1-7.6-6.995c-1.623-1.99-3.178-4.645-3.34-7.1C241.4,410.24,241.691,403.414,241.691,397.1Z" transform="translate(-3.881 -28.797)" fill="#ee4036" fill-rule="evenodd"/>
  </g>
</svg>
