<svg xmlns="http://www.w3.org/2000/svg" width="82.676" height="82.463" viewBox="0 0 82.676 82.463">
  <g id="Group_38122" data-name="Group 38122" transform="translate(-196.636 -287.346)">
    <path id="Path_59394" data-name="Path 59394" d="M245.2,328.5c-4.106-1.2-7.262.742-10.443,2.639a43.4,43.4,0,0,1-4.136,2.241,8.217,8.217,0,0,1-2.192.353,8.026,8.026,0,0,1,.052-2.3c.709-2.207,1.632-4.345,2.327-6.556a2.254,2.254,0,0,0-.34-1.9c-8.228-8.374-5.2-21.1,6.246-25.915a20.464,20.464,0,0,1,10.706-1.436,2.149,2.149,0,0,0,2.341-.914c7.1-8.957,21.57-9.9,29.911-1.989,6.452,6.119,6.8,15.038.681,21.493a2.54,2.54,0,0,0-.561,3.241c.781,1.847,1.463,3.742,2.058,5.657a10.793,10.793,0,0,1,.19,2.469,9.509,9.509,0,0,1-2.591-.51c-2.791-1.432-5.493-3.036-8.268-4.5a4.913,4.913,0,0,0-2.127-.474c-2.183-.043-4.37-.033-6.55.069a2.282,2.282,0,0,0-1.489.772A19.916,19.916,0,0,1,245.2,328.5Zm-13.656,1.8c2.613-1.436,4.809-2.749,7.107-3.851a5.672,5.672,0,0,1,2.979-.467c5.766.7,11.013-.376,15.431-4.334a12.478,12.478,0,0,0,.382-18.818,17.351,17.351,0,0,0-15.825-4.585c-6.053,1.1-10.761,4.217-12.82,10.3-1.87,5.526.353,9.875,4.326,13.662a2.731,2.731,0,0,1,.451,2.27C233.083,326.323,232.33,328.1,231.541,330.3Zm46.96-8.439c.1-.183.163-.252.149-.291-.582-1.653-1.1-3.335-1.786-4.944a2.28,2.28,0,0,1,.761-3.067c6.151-5.307,6.173-13.885.106-19.286a18.751,18.751,0,0,0-26.309,2.038c4.539,1.664,8.2,4.193,10.562,8.28a14.391,14.391,0,0,1,.813,13.08c2.15,0,4.088-.055,6.021.023a7.7,7.7,0,0,1,2.977.523C274.084,319.318,276.273,320.629,278.5,321.857Z" transform="translate(-18.158)" fill="#39b549" fill-rule="evenodd"/>
    <path id="Path_59395" data-name="Path 59395" d="M337.716,418.248c7.837.969,12.807,4.956,14.477,11.739a34.472,34.472,0,0,1,.536,6.349c.074,1.373-.862,1.621-2,1.616-3.33-.017-6.66,0-9.99,0q-11.027,0-22.055,0c-4.685,0-4.1.237-4.076-4.212a15.06,15.06,0,0,1,10.978-14.748c1.245-.364,2.553-.513,4.142-.821-2.872-1.5-5.078-3.453-6.179-6.377a10.88,10.88,0,0,1,.271-8.612,10.957,10.957,0,0,1,20.651,2.364C345.23,409.669,344.35,414.745,337.716,418.248Zm12.326,17.083c.964-6.676-3.473-13.275-10.05-14.145a49.5,49.5,0,0,0-12.925.012c-6.57.88-11.257,7.969-9.881,14.133Zm-7.868-27.4a8.614,8.614,0,0,0-8.415-8.639,8.538,8.538,0,1,0,8.415,8.639Z" transform="translate(-73.421 -68.174)" fill="#39b549" fill-rule="evenodd"/>
    <path id="Path_59396" data-name="Path 59396" d="M216.978,433.76c4.7.384,8.052,2.378,10.124,6.331,1.439,2.746,1.312,5.716,1.219,8.671-.046,1.459-1.188,1.384-2.21,1.385q-12.172,0-24.344,0a21.1,21.1,0,0,1-3.388-.064,2.035,2.035,0,0,1-1.4-1.152c-1.265-5.013,1.093-10.911,5.512-13.414a36.315,36.315,0,0,1,5.648-2.084,9.187,9.187,0,0,1-4.479-8.155,8.776,8.776,0,0,1,3.168-6.606,9.043,9.043,0,0,1,12.954,1.135C223.273,424.025,222.235,429.687,216.978,433.76Zm8.674,13.773c.934-6.807-2.865-11.24-9.54-11.243q-3.487,0-6.975,0c-6.649,0-10.53,4.529-9.544,11.242Zm-12.869-15.4a6.607,6.607,0,1,0-6.644-6.526A6.6,6.6,0,0,0,212.783,432.138Z" transform="translate(0 -80.376)" fill="#39b549" fill-rule="evenodd"/>
    <path id="Path_59397" data-name="Path 59397" d="M269.185,341.982a4.348,4.348,0,1,1,.05,8.7,4.348,4.348,0,0,1-.05-8.7Zm-.418,6.483.822.008c.5-.676,1.266-1.294,1.428-2.043a1.532,1.532,0,0,0-1.739-1.907,2.555,2.555,0,0,0-1.791,1.675C267.426,346.911,268.3,347.705,268.767,348.464Z" transform="translate(-42.516 -34.012)" fill="#39b549" fill-rule="evenodd"/>
    <path id="Path_59398" data-name="Path 59398" d="M243.762,341.979a4.35,4.35,0,0,1-.137,8.7,4.438,4.438,0,0,1-4.214-4.435A4.355,4.355,0,0,1,243.762,341.979Zm2.15,4.635q-.006-.39-.012-.78c-.765-.464-1.563-1.332-2.283-1.271-.619.052-1.7,1.289-1.589,1.776a2.732,2.732,0,0,0,1.894,1.706C244.512,348.122,245.243,347.13,245.912,346.613Z" transform="translate(-26.629 -34.01)" fill="#39b549" fill-rule="evenodd"/>
    <path id="Path_59399" data-name="Path 59399" d="M299,346.384a4.312,4.312,0,0,1-4.312,4.29,4.347,4.347,0,1,1,.126-8.692A4.3,4.3,0,0,1,299,346.384Zm-4.684,2.1.853-.013c.475-.745,1.414-1.571,1.3-2.211a2.735,2.735,0,0,0-1.918-1.695c-.464-.075-1.571,1.1-1.589,1.741C292.936,347.014,293.821,347.753,294.312,348.48Z" transform="translate(-58.344 -34.012)" fill="#39b549" fill-rule="evenodd"/>
    <path id="Path_59400" data-name="Path 59400" d="M325.7,313.019c-2.323,0-4.65.084-6.964-.057-.61-.037-1.177-.771-1.764-1.185.586-.391,1.166-1.109,1.76-1.121q7.058-.14,14.12,0c.624.012,1.686.608,1.766,1.069.2,1.18-.813,1.308-1.764,1.3C330.466,313.01,328.081,313.019,325.7,313.019Z" transform="translate(-74.911 -14.467)" fill="#39b549" fill-rule="evenodd"/>
    <path id="Path_59401" data-name="Path 59401" d="M333.756,327.881c-1.752,0-3.512.094-5.25-.055-.553-.048-1.049-.745-1.571-1.145.5-.419.985-1.188,1.494-1.2q5.438-.158,10.882,0c.544.015,1.069.736,1.6,1.131-.572.426-1.115,1.163-1.72,1.218C337.394,327.986,335.57,327.881,333.756,327.881Z" transform="translate(-81.115 -23.688)" fill="#39b549" fill-rule="evenodd"/>
    <path id="Path_59402" data-name="Path 59402" d="M339.181,342.745a32.309,32.309,0,0,1-4.134-.057c-.553-.071-1.023-.781-1.531-1.2.46-.4.907-1.132,1.382-1.149,2.883-.108,5.774-.108,8.656,0,.5.018.972.714,1.456,1.1-.5.437-.96,1.182-1.506,1.251A35.091,35.091,0,0,1,339.181,342.745Z" transform="translate(-85.212 -32.939)" fill="#39b549" fill-rule="evenodd"/>
  </g>
</svg>
