<svg xmlns="http://www.w3.org/2000/svg" width="172.826" height="197.595" viewBox="0 0 172.826 197.595">
  <g id="Group_38140" data-name="Group 38140" transform="translate(-220.181 -296.47)">
    <path id="Path_59457" data-name="Path 59457" d="M283.989,442.968c2.011,1.324,3.992,3.741,6.037,3.8,12.988.345,25.993.338,38.987.1,7.255-.132,12.546-3.92,15.917-10.343,5.72-10.9,11.413-21.8,17.166-32.683,4.443-8.4,11.5-13.107,20.832-14.6,3.7-.592,5.861.85,8.329,3.809,2.678,3.212,1.86,5.41.347,8.275-8.3,15.733-16.518,31.514-24.867,47.223-8.108,15.255-20.9,22.647-38.165,22.525-13.829-.1-27.662.108-41.489-.132a10.911,10.911,0,0,0-8.718,3.7c-5.68,5.861-11.385,11.722-17.45,17.174-1.667,1.5-4.64,1.543-7.014,2.256-.191-2.62-2.836-2.856-4.248-4.282-8.912-8.995-17.933-17.885-26.953-26.773-3.188-3.141-3.493-6.018-.088-9.368,11.4-11.222,22.6-22.649,34-33.869,5.357-5.269,12.091-7.537,19.523-7.56q28.744-.1,57.489-.01c5.456.012,6.516,1.27,6.317,6.932-1.483,2.756-2.773,5.641-4.507,8.228a78.751,78.751,0,0,1-5.555,6.678c-12.825.045-25.65.061-38.474.169a38.778,38.778,0,0,0-5.281.749Q285.057,438.962,283.989,442.968Zm-1.665,25.4c0,.083,0,.166,0,.249h52.714c0-.083,0-.166,0-.249Z" fill="#ee4036" fill-rule="evenodd"/>
    <path id="Path_59458" data-name="Path 59458" d="M269.956,399.9c-1.008-3.19-2.851-6.369-2.89-9.571-.261-21.153-.149-42.31-.127-63.466.007-6.25.991-7.2,7.33-7.252,5.108-.038,10.216-.008,15.761-.008,0-3.117-.152-5.441.027-7.738a16.569,16.569,0,0,1,33.1,1.049c.126,6.686.126,6.684,6.894,6.689,3.5,0,7,0,10.495.02,3.877.021,5.717,1.868,5.7,5.862q-.152,35.73-.161,71.461l-2.172,2.217q-34.434.006-68.868.049a31.415,31.415,0,0,0-5.174.858ZM301,319l12.473.659c-1.3-4.622,1.528-9.047-3.4-11.491-4.77-2.3-8.318-.631-8.937,4.347A60.342,60.342,0,0,0,301,319Z" fill="#ee4036" fill-rule="evenodd"/>
    <path id="Path_59459" data-name="Path 59459" d="M343.909,399.168l2.172-2.217a40.035,40.035,0,0,0,.831-5.747c.061-20.494.037-40.987.038-61.48v-5.407l1.114-.15a15.669,15.669,0,0,1,.78,3.425c.047,22.491.009,44.983.053,67.474.009,4.575-2.26,6.869-6.664,6.88q-33.738.081-67.476-.073c-1.6-.01-3.2-1.282-4.8-1.967l-.089.169q34.1-.119,68.2-.266A54.819,54.819,0,0,0,343.909,399.168Z" fill="#ee4036" fill-rule="evenodd"/>
    <path id="Path_59460" data-name="Path 59460" d="M283.989,442.968q1.068-4,2.135-8.009c11.817-.06,23.635-.076,35.451-.21,2.771-.031,5.536-.461,8.3-.708a78.751,78.751,0,0,0,5.555-6.678c1.734-2.587,3.024-5.472,4.507-8.228q.777-1.436,1.553-2.873l1.016.218c-.3,1.8-.151,3.86-.98,5.377-9.579,17.51-4.116,14.158-22.819,14.545-7.148.149-14.314.235-21.449-.114C291.393,436,286.478,436.88,283.989,442.968Z" fill="#ee4036" fill-rule="evenodd"/>
    <path id="Path_59461" data-name="Path 59461" d="M282.324,468.367h52.714c0,.083,0,.166,0,.249H282.325C282.325,468.533,282.325,468.45,282.324,468.367Z" fill="#ee4036" fill-rule="evenodd"/>
    <path id="Path_59462" data-name="Path 59462" d="M329.879,434.041c-2.768.247-5.533.677-8.3.708-11.816.134-23.634.15-35.451.21a38.778,38.778,0,0,1,5.281-.749C304.229,434.1,317.054,434.086,329.879,434.041Z" fill="#ee4036" fill-rule="evenodd"/>
    <path id="Path_59463" data-name="Path 59463" d="M343.909,399.168a54.819,54.819,0,0,1-5.839.641q-34.1.185-68.2.266a31.415,31.415,0,0,1,5.174-.858Q309.475,399.124,343.909,399.168Z" fill="#ee4036" fill-rule="evenodd"/>
    <path id="Path_59464" data-name="Path 59464" d="M310.075,308.172c-4.336,1.476-8.237,3.268-7.587,9.018.062.542-.965,1.207-1.487,1.814a60.342,60.342,0,0,1,.137-6.485C301.757,307.541,305.3,305.875,310.075,308.172Z" fill="#ee4036" fill-rule="evenodd"/>
  </g>
</svg>
