<svg id="Group_38059" data-name="Group 38059" xmlns="http://www.w3.org/2000/svg" width="61.232" height="84.304" viewBox="0 0 61.232 84.304">
  <path id="Path_59191" data-name="Path 59191" d="M434.058,181.93v16.9H427.09c-.008-.142-.022-.267-.022-.393q0-8.081,0-16.163c0-.114.015-.228.023-.341Zm-1.8,2.811a1.511,1.511,0,0,0-1.513-1.568,1.6,1.6,0,0,0-1.579,1.535,1.547,1.547,0,0,0,1.546,1.546A1.457,1.457,0,0,0,432.259,184.741Z" transform="translate(-372.827 -181.93)" fill="#fbaf40" fill-rule="evenodd"/>
  <path id="Path_59192" data-name="Path 59192" d="M204.7,385.7c.193.8.444,1.6.564,2.416.149,1.014.2,2.043.273,3.067a1.573,1.573,0,0,0,1.671,1.521,1.618,1.618,0,0,0,1.444-1.607A14.652,14.652,0,0,0,207,383.928a9.129,9.129,0,0,0-5.47-4.439.515.515,0,0,0-.634.154c-.223.26-.48.492-.723.735a.689.689,0,0,1-.122.043c-.2-.222-.448-.461-.659-.728a.56.56,0,0,0-.7-.2,9.263,9.263,0,0,0-5.788,5.1,13.17,13.17,0,0,0-1.218,5.027c-.027.5-.075,1-.076,1.5a1.553,1.553,0,0,0,1.342,1.569,1.456,1.456,0,0,0,1.668-1.34c.114-.949.127-1.912.269-2.856s.387-1.849.587-2.772l.171.02v.394c0,1.591-.013,3.182.008,4.773.007.508.108,1.014.159,1.521.043.439.108.878.109,1.317q.006,7.672-.006,15.344v.877h-.569c-1.26,0-2.52-.016-3.779-.006a3.052,3.052,0,0,1-3.161-3.06c-.035-1.31-.233-2.615-.36-3.923q-.153-1.577-.309-3.154-.2-2.046-.4-4.093c-.1-1.038-.19-2.077-.29-3.116-.131-1.365-.269-2.728-.4-4.093-.1-1.024-.166-2.051-.294-3.071a24.572,24.572,0,0,0-.46-3.72,4.819,4.819,0,0,1-.109-1.278c-.01-2.265,0-4.53,0-6.794v-.469l-.107-.022c-.23.831-.508,1.652-.682,2.494-.375,1.808-.676,3.631-1.049,5.439a2.468,2.468,0,0,1-2.786,1.862,2.411,2.411,0,0,1-2.089-2.435,25.766,25.766,0,0,1,.422-3.04,38.537,38.537,0,0,1,1.783-6.835,15.856,15.856,0,0,1,4.269-6.42,18.184,18.184,0,0,1,4.856-3.156.544.544,0,0,1,.726.162c.4.428.86.8,1.3,1.2l1.48-1.519a16.392,16.392,0,0,1,7.016,4.772c1.168-.818,2.305-1.646,3.479-2.419a11.455,11.455,0,0,1,1.708-.863.575.575,0,0,1,.5.108c.453.43.871.9,1.3,1.353.451-.447.9-.871,1.321-1.316a.474.474,0,0,1,.6-.142,16.307,16.307,0,0,1,4.477,2.613,16.544,16.544,0,0,1,5.488,9.2c.551,2.174.9,4.4,1.331,6.6a2.414,2.414,0,0,1-2.375,2.92,2.488,2.488,0,0,1-2.373-2.121,40.536,40.536,0,0,0-1.8-7.885c-.037-.1-.081-.2-.122-.3l-.131.016c.077,1.52.1,3.044.246,4.558.141,1.488.4,2.965.609,4.445.237,1.649.481,3.3.721,4.946q.327,2.24.653,4.481c.131.9.261,1.8.4,2.758h-2.482c-.673,0-.674,0-.764.652q-.557,4-1.114,8c-.192,1.383-.359,2.77-.579,4.148a2.738,2.738,0,0,1-2.665,2.5c-1.669.092-3.348.021-5.087.021v-.481q0-8.063,0-16.126a1.948,1.948,0,0,1,.074-.546,13.8,13.8,0,0,0,.228-3.634c.031-1.146.006-2.293.006-3.44Zm-4.629-6.574A4.352,4.352,0,1,0,195.8,374.8,4.323,4.323,0,0,0,200.072,379.123Z" transform="translate(-173.636 -325.689)" fill="#fbaf40" fill-rule="evenodd"/>
  <path id="Path_59193" data-name="Path 59193" d="M204.423,197.109v12.183c-.779.1-1.549.221-2.324.3a12.378,12.378,0,0,0-5.538,1.923,14.987,14.987,0,0,1-5.326,2.1,17.324,17.324,0,0,1-4.789.161,62.209,62.209,0,0,0-9.189-.556c-1.029.056-2.063.114-3.09.071a17.173,17.173,0,0,1-2.751-.346,1.423,1.423,0,0,1-1.266-1.44,1.3,1.3,0,0,1,.652-1,8.915,8.915,0,0,1,3.75-1.563c1.714-.341,3.452-.566,5.229-.849a1.332,1.332,0,0,0-.813-1.077,5.675,5.675,0,0,0-2.86-.576,26.064,26.064,0,0,0-6.147.735c-2.871.688-5.707,1.522-8.581,2.194-1.937.453-3.906.8-5.878,1.062a10.968,10.968,0,0,1-2.763-.146,1.413,1.413,0,0,1-1.163-1.264,1.616,1.616,0,0,1,.575-1.912,28.7,28.7,0,0,1,3.3-1.778,100.4,100.4,0,0,1,13.812-4.869c2.483-.694,5.013-1.245,7.546-1.73a21.059,21.059,0,0,1,3.752-.222c3.424-.029,6.85.02,10.274-.031,1.713-.026,3.43-.147,5.136-.325,2.481-.258,4.951-.606,7.427-.915C203.717,197.189,204.042,197.153,204.423,197.109Z" transform="translate(-151.492 -194.121)" fill="#fbaf40" fill-rule="evenodd"/>
  <path id="Path_59194" data-name="Path 59194" d="M213.816,300.2a6.428,6.428,0,1,1,6.4,6.435A6.435,6.435,0,0,1,213.816,300.2Z" transform="translate(-201.548 -271.744)" fill="#fbaf40" fill-rule="evenodd"/>
  <path id="Path_59195" data-name="Path 59195" d="M306.232,308.791a6.253,6.253,0,1,1-6.139-6.284A6.24,6.24,0,0,1,306.232,308.791Z" transform="translate(-265.73 -278.774)" fill="#fbaf40" fill-rule="evenodd"/>
  <path id="Path_59196" data-name="Path 59196" d="M283.469,544.515h-1.653c-.007-.122-.019-.245-.019-.369q0-7.393,0-14.787c0-.7.238-.934.929-.9a.655.655,0,0,1,.735.665,2.313,2.313,0,0,1,.008.3q0,7.351,0,14.7Z" transform="translate(-256.148 -460.247)" fill="#fbaf40" fill-rule="evenodd"/>
</svg>
