<svg id="umbreela" xmlns="http://www.w3.org/2000/svg" width="74.617" height="72.703" viewBox="0 0 74.617 72.703">
  <path id="Path_59181" data-name="Path 59181" d="M275,352.024H238.969c.358-12.275,5.172-22.245,14.9-29.685a36.807,36.807,0,0,1,40.9-2.412c12.033,7.2,17.991,18.046,18.6,32.075H277.433v.92c0,9.25.022,18.5-.029,27.75a8.5,8.5,0,0,1-.658,3.286c-1.436,3.272-4.836,4.332-8.236,2.672a5.482,5.482,0,0,1-3.335-4.191,4.515,4.515,0,0,1,0-.6c.7,0,1.383-.019,2.063.017a.53.53,0,0,1,.348.363c.188,1.4,2.081,2.806,4.406,2.712a3.436,3.436,0,0,0,2.953-3.207,6.136,6.136,0,0,0,.053-.863q0-14.075,0-28.15Zm-8.707-31.446v.762c0,5.1-.006,10.2,0,15.3a9.836,9.836,0,0,0,19.672.119c.044-5.21.012-10.421.01-15.632a3.252,3.252,0,0,0-.082-.478c-1.261,1.8-2.695,3.176-4.956,3.181-2.306.005-3.7-1.416-4.808-3.27C273.851,324.6,268.98,324.284,266.289,320.578Z" transform="translate(-238.969 -314.849)" fill="#ee4036" fill-rule="evenodd"/>
  <path id="Path_59182" data-name="Path 59182" d="M320.659,430.579c-2.37-.228-4.705-.454-7.042-.673a.783.783,0,0,1-.822-.951c.044-.885,0-1.773.012-2.66.009-.691.179-.844.842-.748a49.241,49.241,0,0,0,13.918,0c.692-.1.86.062.867.792.008.887-.021,1.775.011,2.66a.763.763,0,0,1-.787.918Q324.155,430.239,320.659,430.579Z" transform="translate(-271.842 -364.128)" fill="#ee4036" fill-rule="evenodd"/>
  <path id="Path_59183" data-name="Path 59183" d="M353.06,419.848c-2.411-.233-4.767-.465-7.125-.685-.578-.054-.8-.337-.779-.918.033-.907.017-1.817.007-2.726-.007-.575.225-.793.819-.708a49.129,49.129,0,0,0,13.984-.011c.589-.084.83.129.824.707-.011.954-.018,1.907,0,2.86a.671.671,0,0,1-.687.788C357.749,419.385,355.392,419.618,353.06,419.848Z" transform="translate(-286.252 -359.348)" fill="#ee4036" fill-rule="evenodd"/>
  <path id="Path_59184" data-name="Path 59184" d="M320.78,441.513c-2.366-.212-4.683-.4-6.995-.64-.94-.1-.977-.2-.977-1.14,0-.82-.008-1.641,0-2.461.009-.736.146-.866.88-.766a49.447,49.447,0,0,0,11.277.275c.883-.082,1.766-.173,2.643-.3.572-.08.842.11.835.7-.011.931-.027,1.863.006,2.793a.733.733,0,0,1-.756.873Z" transform="translate(-271.847 -369.003)" fill="#ee4036" fill-rule="evenodd"/>
  <path id="Path_59185" data-name="Path 59185" d="M321.121,419.636c-2.4-.217-4.959-.454-7.515-.673-.617-.053-.834-.356-.811-.958.034-.886,0-1.773.012-2.66.011-.683.17-.818.856-.724a50.859,50.859,0,0,0,13.919-.013c.662-.091.845.063.852.732.01.909-.015,1.818.009,2.726.014.539-.179.837-.734.893C325.574,419.173,323.439,419.4,321.121,419.636Z" transform="translate(-271.842 -359.26)" fill="#ee4036" fill-rule="evenodd"/>
  <path id="Path_59186" data-name="Path 59186" d="M320.643,408.693c-2.314-.216-4.608-.411-6.9-.653-.893-.094-.937-.2-.938-1.105,0-.8-.007-1.6,0-2.394.006-.853.135-.971.99-.853a47.3,47.3,0,0,0,9.949.362c1.237-.092,2.47-.244,3.7-.374.864-.091.989.011.992.856s-.036,1.686.009,2.527a.82.82,0,0,1-.863.993Q324.116,408.368,320.643,408.693Z" transform="translate(-271.847 -354.39)" fill="#ee4036" fill-rule="evenodd"/>
  <path id="Path_59187" data-name="Path 59187" d="M353.023,430.522q-3.479-.321-6.948-.64c-.658-.059-.992-.33-.935-1.062.062-.793.013-1.595.017-2.392,0-.925.118-.972,1.066-.908,2.605.18,5.214.414,7.822.432,1.919.013,3.841-.276,5.761-.444.858-.074.969.01.973.871q0,1.2,0,2.394c0,.914-.04,1.02-.927,1.113C357.584,430.125,355.311,430.312,353.023,430.522Z" transform="translate(-286.243 -364.114)" fill="#ee4036" fill-rule="evenodd"/>
  <path id="Path_59188" data-name="Path 59188" d="M320.856,397.693c-2.373-.224-4.707-.453-7.043-.661-.668-.059-.913-.372-.876-1.041.048-.861.026-1.728,0-2.592-.014-.581.234-.824.8-.742a49.575,49.575,0,0,0,13.978,0c.681-.1.832.046.838.744.009.93-.023,1.862.009,2.792a.694.694,0,0,1-.723.822Z" transform="translate(-271.905 -349.484)" fill="#ee4036" fill-rule="evenodd"/>
  <path id="Path_59189" data-name="Path 59189" d="M353.14,441.85c-2.35-.224-4.662-.451-6.977-.662-.622-.057-.893-.327-.856-.984.05-.883.034-1.773.009-2.659-.016-.582.208-.821.794-.735a49.13,49.13,0,0,0,13.981.005c.683-.1.825.049.83.749.007.909-.029,1.819.012,2.726.028.607-.248.845-.8.9Q356.633,441.517,353.14,441.85Z" transform="translate(-286.319 -369.148)" fill="#ee4036" fill-rule="evenodd"/>
  <path id="Path_59190" data-name="Path 59190" d="M302.413,340.057c0,2.073,0,2.072,2.1,2.076.355,0,.71-.011,1.064.005a2.069,2.069,0,0,1,2.01,2.065,2.047,2.047,0,0,1-1.984,2.086c-.707.031-1.418,0-2.127.012-.754.013-1.043.3-1.058,1.052-.015.687.012,1.375-.011,2.061a2.057,2.057,0,0,1-2.081,2.059,2.081,2.081,0,0,1-2.076-2.071c-.02-.665,0-1.33-.008-1.995-.009-.833-.281-1.1-1.131-1.108-.642-.007-1.285.009-1.928-.006a2.078,2.078,0,1,1-.023-4.156c.687-.019,1.375,0,2.061-.008.71-.013,1-.307,1.018-1.016.013-.665-.006-1.33.007-1.995a2.085,2.085,0,1,1,4.166.007C302.42,339.437,302.412,339.747,302.413,340.057Z" transform="translate(-263.057 -324.693)" fill="#ee4036" fill-rule="evenodd"/>
</svg>
